<svg baseProfile="tiny" xmlns="http://www.w3.org/2000/svg" viewBox="-20 0 90.5 100"><path d="M-14.4 95.4h78.7c.8 0 1.5-.1 1.7-1 .1-.7-.1-1.6-.1-2.3-.1-2.3-.3-4.7-.4-7l-1.2-21c-.3-6.4-.7-12.7-1-19.1-.1-1.3 0-2.8-.2-4.1-.1-.3-.1-.5-.3-.7-.7-.8-2.7-.4-3.6-.4h-69.7c-.7 0-1.6 0-1.9.8-.2.5-.1 1.4-.1 1.9-.1 2.2-.3 4.4-.4 6.6l-1.2 21c-.4 6.4-.7 12.9-1.1 19.3l-.3 4.5c0 .4 0 .7.2 1 .2.3.6.5.9.5zm0 4.4c-2.2 0-4.2-1.3-5.1-3.2-1-2.2-.3-5.3-.2-7.6.9-15 1.7-30 2.6-45 .1-2.2-.1-4.6 1.3-6.4 1.1-1.5 2.9-2.2 4.7-2.3 12.2-.3 24.5 0 36.7 0 12 0 24.1-.3 36.2 0 1.9.1 3.6.8 4.7 2.4 1.3 1.9 1.1 4.5 1.2 6.6.9 15 1.7 30 2.6 45 .1 2.3.8 5.2-.3 7.4-1 1.9-2.9 3-5 3-11.1.4-22.3 0-33.5 0h-43.3c-.9.1-1.7.1-2.6.1z"/><path d="M4.6 52.6c-.9 0-4.1.4-4.4-.2-.2-.4 0-1.4 0-1.9 0-.7 0-1.5.1-2.2.1-2.6.3-5.1.5-7.6.6-5.4 1.5-10.8 3-16C6 16.9 9.4 8.4 15.9 3.3 20.5-.5 26.5-1.2 31.7 2c6.5 4 10.1 11.8 12.5 18.7C46 26 47.3 31.6 48 37.2c.3 2.5.6 5 .8 7.5.1 1.3.2 2.6.2 3.9 0 .7 0 1.3.1 2 0 .4.2 1.7 0 2-.4.5-3.6.1-4.4.1 0-10.1-1.2-20.3-4.5-29.9-2-5.8-4.8-12.4-9.9-16.2-3-2.2-6.7-2.7-10-.8-4.9 2.8-7.9 8.7-10 13.8C6.5 28.7 5 39 4.7 49.1c0 1.1-.1 2.3-.1 3.5z"/></svg>