<svg id="Ebene_1" data-name="Ebene 1" xmlns="http://www.w3.org/2000/svg" viewBox="0 0 100 22.07"><defs><style>.cls-1{fill:#fecc00;}.cls-2{fill:#d50029;}</style></defs><title>icon-delivery-dhl</title><polygon class="cls-1" points="100 0 100 22.07 0 22.07 0 0 100 0 100 0"/><path class="cls-2" d="M32.24,9.22c-.44.59-1.17,1.62-1.61,2.22-.23.31-.63.86.72.86h7.12l2.11-2.87C41.89,7.66,40.69,4,36,4H17.59L14.39,8.3H31.8C32.68,8.3,32.67,8.64,32.24,9.22ZM27,13.37c-1.35,0-.94-.56-.72-.86l1.63-2.21c.43-.58.44-.92-.44-.92h-8L13.1,18.1H28.75a11.08,11.08,0,0,0,8.93-4.73ZM37.19,18.1h9.18l3.48-4.73H40.67ZM60.87,4,57.35,8.75h-4.1L56.78,4H47.6L41.46,12.3H63.91L70.05,4ZM50.47,18.1h9.18l3.48-4.73H53.95ZM0,15.24v1H12.78l.74-1Zm14.9-1.87H0v1H14.16ZM0,18.1H11.41l.74-1H0Zm86.53-1.86H100v-1H87.27ZM85.16,18.1H100v-1H85.89Zm3.48-4.73-.74,1H100v-1Zm-12-1.07L82.76,4H73L66.9,12.3ZM66.11,13.37l-1,1.36C64,16.29,65,18.1,68.74,18.1H83.48L87,13.37H66.11Z"/></svg>