<?xml version="1.0" encoding="utf-8"?><svg version="1.1" id="Ebene_1" xmlns="http://www.w3.org/2000/svg" xmlns:xlink="http://www.w3.org/1999/xlink" x="0px" y="0px"  viewBox="0 0 512 512" style="enable-background:new 0 0 512 512;" xml:space="preserve"><style type="text/css"> .st0{fill:none;} .st1{fill:#FFFFFF;}</style><g> <rect class="st0" width="512" height="512"/> <g>  <path d="M507.5,256C507.5,117.1,394.9,4.5,256,4.5S4.5,117.1,4.5,256c0,125.5,92,229.6,212.2,248.4V328.7h-63.9V256h63.9v-55.4   c0-63,37.5-97.8,95-97.8c27.5,0,56.3,4.9,56.3,4.9v61.9h-31.7c-31.2,0-41,19.4-41,39.3V256H365l-11.2,72.7h-58.6v175.7   C415.5,485.6,507.5,381.5,507.5,256z"/>  <path class="st1" d="M353.9,328.7L365,256h-69.8v-47.2c0-19.9,9.7-39.3,41-39.3H368v-61.9c0,0-28.8-4.9-56.3-4.9   c-57.4,0-95,34.8-95,97.8V256h-63.9v72.7h63.9v175.7c12.8,2,25.9,3.1,39.3,3.1s26.5-1,39.3-3.1V328.7H353.9z"/> </g></g></svg>