<?xml version="1.0" encoding="utf-8"?>
<!-- Generator: Adobe Illustrator 22.1.0, SVG Export Plug-In . SVG Version: 6.00 Build 0)  -->
<svg version="1.1" id="Ebene_1" xmlns="http://www.w3.org/2000/svg" xmlns:xlink="http://www.w3.org/1999/xlink" x="0px" y="0px"
	 viewBox="0 0 100 83.2" style="enable-background:new 0 0 100 83.2;" xml:space="preserve">
<style type="text/css">
	.st0{fill:#DFDFDF;}
</style>
<path class="st0" d="M50.1,83.2c-1.1,0-2.1-0.3-3.1-0.9c-2.6-1.7-4.9-4.1-7.2-6.2c-5.2-4.5-10.5-9.1-15.7-13.6S13.3,53.7,8.4,48.8
	c-3.7-3.6-6.3-8.2-7.6-13.2c-1.7-6.9-0.9-14.5,2.6-20.7c4.1-7.4,11.6-13,20-14.4C28.2-0.3,33.3,0,38,1.6c2.2,0.8,4.2,1.8,6.2,3.1
	c0.9,0.6,1.8,1.3,2.7,2c0.7,0.6,2.5,2.7,3.2,2.6c0.4,0,1.4-1.2,1.7-1.5c0.6-0.5,1.1-1,1.7-1.5c1-0.8,2.1-1.6,3.2-2.2
	c2.1-1.3,4.4-2.3,6.8-3c4.5-1.3,9.2-1.3,13.7-0.4c7.2,1.4,13.5,5.5,17.6,11.6c4.1,6.2,6.2,13.9,4.8,21.4c-0.7,3.7-2.2,7.1-4.2,10.3
	c-2.2,3.4-5,6-8.1,8.6c-6.4,5.6-12.8,11.1-19.2,16.7c-4.9,4.2-9.6,8.9-14.8,12.8C52.4,82.7,51.3,83.2,50.1,83.2z M50,77.8
	c4.8-3.8,9.3-8.1,14-12.1c6.5-5.6,12.9-11.2,19.4-16.8c2.6-2.3,5.2-4.4,7.1-7.2c1.7-2.5,3-5.2,3.6-8.2c1.4-5.8,0-11.8-2.9-16.9
	c-2.9-5-7.4-8.6-12.9-10.2c-7.3-2.1-15-0.9-21.1,3.8c-1,0.8-2,1.7-3,2.5c-1.2,1-2.4,2.5-3.7,3.3c-0.8,0.5-0.6,0.3-1.5-0.5
	c-0.7-0.6-1.4-1.2-2-1.8c-1.1-1-2.2-1.9-3.3-2.9c-2.8-2.3-6-4-9.5-4.9C26.3,4,18.1,6.3,12.4,12c-3.6,3.6-6.1,8.2-6.7,13.2
	c-0.9,7.4,1.5,14.7,6.9,19.9c4.8,4.7,10.1,8.9,15.2,13.2c4.9,4.3,9.9,8.6,14.8,12.9C44.9,73.5,47.4,75.8,50,77.8z"/>
</svg>
