<svg baseProfile="tiny" xmlns="http://www.w3.org/2000/svg" viewBox="0 100 68.7 100"><path d="M62.5 100H7c-2.8 0-5.5 1.2-6.5 4-.5 1.2-.5 2.3-.5 3.6V192.5c0 1.3 0 2.6.6 3.9C1.8 199 4.3 200 7 200h45.7c3.3 0 6.7.2 10 0 3.5-.2 6-3.1 6-6.5v-3-14.3-20.9-22.1-18-8.7c0-3.5-2.7-6.5-6.2-6.5zm-28.1 95.4c-2.6 0-4.9-2.2-4.9-4.9 0-2.6 2.2-4.9 4.9-4.9 2.6 0 4.9 2.2 4.9 4.9-.1 2.7-2.3 4.9-4.9 4.9zm28.1-14.2H7.2c-.2 0-.7.1-.9 0-.2-.1-.1-.7-.1-1v-9.6-34.2-15.3-5.3c0-.9-.1-2 0-2.9.1-.5 0-.4.5-.4H61.4c.4 0 .8-.1.9.1.1.2 0 .7 0 .9v66.3c.2.5.2.9.2 1.4z"/></svg>