<?xml version="1.0" encoding="utf-8"?><svg version="1.1" id="Ebene_1" xmlns="http://www.w3.org/2000/svg" xmlns:xlink="http://www.w3.org/1999/xlink" x="0px" y="0px"  viewBox="0 0 512 512" style="enable-background:new 0 0 512 512;" xml:space="preserve"><style type="text/css"> .st0{fill:none;} .st1{fill:#FFFFFF;}</style><g> <rect class="st0" width="512" height="512"/></g><g id="art"> <g>  <circle class="st1" cx="256" cy="255.8" r="252.5"/>  <g>   <path d="M256,3.3C116.6,3.3,3.5,116.3,3.5,255.8c0,107,66.5,198.5,160.4,235.3c-2.3-20-4.2-50.7,0.8-72.5    c4.6-19.7,29.5-125.5,29.5-125.5s-7.5-15.2-7.5-37.4c0-35.1,20.4-61.3,45.7-61.3c21.6,0,32,16.2,32,35.5c0,21.6-13.7,54-21,84.2    c-6,25.1,12.7,45.7,37.4,45.7c44.9,0,79.4-47.4,79.4-115.5c0-60.5-43.4-102.7-105.6-102.7c-71.9,0-114.1,53.8-114.1,109.5    c0,21.6,8.3,44.9,18.7,57.6c2.1,2.5,2.3,4.8,1.7,7.3c-1.9,7.9-6.2,25.1-7.1,28.7c-1,4.6-3.7,5.6-8.5,3.3    c-31.6-14.8-51.3-60.7-51.3-97.9c0-79.6,57.8-152.7,166.9-152.7c87.5,0,155.7,62.3,155.7,145.9c0,87.1-54.9,157.1-130.9,157.1    c-25.6,0-49.7-13.3-57.8-29.1c0,0-12.7,48.2-15.8,60.1c-5.6,22-21,49.5-31.4,66.3c23.7,7.3,48.6,11.2,74.8,11.2    c139.4,0,252.5-113.1,252.5-252.5C508.5,116.3,395.4,3.3,256,3.3z"/>  </g> </g></g></svg>