<?xml version="1.0" encoding="utf-8"?><svg version="1.1" id="Logo__x2014__FIXED" xmlns="http://www.w3.org/2000/svg" xmlns:xlink="http://www.w3.org/1999/xlink" x="0px"  y="0px" viewBox="0 0 512 512" style="enable-background:new 0 0 512 512;" xml:space="preserve"><style type="text/css"> .st0{fill:none;}</style><g> <rect class="st0" width="512" height="512"/> <path d="M161.4,463.2c192.5,0,297.7-159.4,297.7-297.7c0-4.5-0.1-9-0.3-13.5c20.4-14.8,38.2-33.2,52.2-54.2  c-18.7,8.3-38.9,13.9-60.1,16.5c21.6-13,38.2-33.4,46-57.9c-20.2,12-42.6,20.7-66.4,25.4c-19.1-20.3-46.3-33.1-76.4-33.1  c-57.8,0-104.7,46.9-104.7,104.6c0,8.2,0.9,16.2,2.7,23.9c-87-4.4-164.1-46-215.7-109.3c-9,15.5-14.2,33.4-14.2,52.6  c0,36.3,18.5,68.3,46.6,87.1c-17.2-0.5-33.3-5.2-47.4-13.1c0,0.4,0,0.9,0,1.3c0,50.7,36.1,93,83.9,102.6c-8.8,2.4-18,3.7-27.6,3.7  c-6.7,0-13.3-0.7-19.7-1.9c13.3,41.6,51.9,71.8,97.7,72.7C120.1,401,75,417.7,26,417.7c-8.4,0-16.8-0.5-25-1.4  C47.3,445.9,102.3,463.2,161.4,463.2"/></g></svg>