<?xml version="1.0" encoding="utf-8"?><svg version="1.1" id="Logo" xmlns="http://www.w3.org/2000/svg" xmlns:xlink="http://www.w3.org/1999/xlink" x="0px" y="0px"  viewBox="0 0 512 512" style="enable-background:new 0 0 512 512;" xml:space="preserve"><style type="text/css"> .st0{fill:none;}</style><g id="XMLID_524_"> <rect class="st0" width="512" height="512"/> <path id="XMLID_529_" d="M405.6,296.5c-10.4,0-18.8-8.4-18.8-18.8c0-10.4,8.4-18.8,18.8-18.8c10.4,0,18.8,8.4,18.8,18.8  C424.4,288.1,416,296.5,405.6,296.5 M305.2,296.5c-10.4,0-18.8-8.4-18.8-18.8c0-10.4,8.4-18.8,18.8-18.8c10.4,0,18.8,8.4,18.8,18.8  C324,288.1,315.6,296.5,305.2,296.5 M454,412.8c31.7-23,52-57,52-94.9c0-69.3-67.4-125.5-150.6-125.5  c-83.2,0-150.6,56.2-150.6,125.5c0,69.3,67.4,125.5,150.6,125.5c17.2,0,33.8-2.5,49.2-6.9c1.4-0.4,2.9-0.7,4.4-0.7  c2.9,0,5.5,0.9,8,2.3l33,19c0.9,0.5,1.8,0.9,2.9,0.9c2.8,0,5-2.3,5-5c0-1.2-0.5-2.5-0.8-3.7c-0.2-0.7-4.2-15.9-6.8-25.3  c-0.3-1.1-0.5-2.1-0.5-3.2C449.7,417.6,451.4,414.6,454,412.8"/> <path id="XMLID_525_" d="M247,177.6c-11.8,0-21.4-9.6-21.4-21.4s9.6-21.4,21.4-21.4s21.4,9.6,21.4,21.4S258.8,177.6,247,177.6   M126.5,177.6c-11.8,0-21.4-9.6-21.4-21.4s9.6-21.4,21.4-21.4c11.8,0,21.4,9.6,21.4,21.4S138.3,177.6,126.5,177.6 M186.7,53.8  C86.9,53.8,6,121.3,6,204.5c0,45.4,24.3,86.2,62.4,113.8c3.1,2.2,5.1,5.8,5.1,9.8c0,1.3-0.3,2.6-0.6,3.8c-3,11.4-7.9,29.5-8.1,30.4  c-0.4,1.4-1,2.9-1,4.4c0,3.3,2.7,6,6,6c1.3,0,2.4-0.5,3.5-1.1l39.6-22.8c3-1.7,6.1-2.8,9.6-2.8c1.9,0,3.6,0.3,5.3,0.8  c18.5,5.3,38.4,8.3,59,8.3c3.3,0,6.6-0.1,9.9-0.2c-3.9-11.8-6.1-24.1-6.1-36.9c0-75.9,73.8-137.4,164.8-137.4  c3.3,0,6.6,0.1,9.8,0.3C351.6,108.9,276.9,53.8,186.7,53.8"/></g></svg>