<?xml version="1.0" encoding="utf-8"?><svg version="1.1" id="Logo" xmlns="http://www.w3.org/2000/svg" xmlns:xlink="http://www.w3.org/1999/xlink" x="0px" y="0px"  viewBox="0 0 512 512" style="enable-background:new 0 0 512 512;" xml:space="preserve"><style type="text/css"> .st0{fill:none;}</style><rect class="st0" width="512" height="512"/><g> <path d="M381.6,248.5c-7-2.1-11.9-3.5-8.2-12.8c8-20.1,8.8-37.4,0.1-49.8c-16.2-23.2-60.6-21.9-111.6-0.6c0,0-16,7-11.9-5.7  c7.8-25.2,6.6-46.2-5.5-58.4c-27.6-27.7-101.1,1-164.1,64C33.4,232.3,6,282.3,6,325.6c0,82.7,106,132.9,209.7,132.9  c136,0,226.4-79,226.4-141.7C442.2,278.9,410.3,257.4,381.6,248.5z M216.1,428.9c-82.8,8.2-154.3-29.3-159.6-83.5  c-5.4-54.4,57.4-105,140.1-113.2c82.8-8.2,154.3,29.3,159.6,83.5C361.6,370,298.8,420.7,216.1,428.9z"/> <path d="M471.9,97.2c-32.8-36.4-81.3-50.3-126-40.8l0,0c-10.3,2.2-16.9,12.4-14.7,22.7c2.2,10.3,12.3,16.9,22.7,14.7  c31.8-6.8,66.2,3.1,89.6,29c23.3,25.9,29.7,61.1,19.7,92l0,0c-3.2,10.1,2.3,20.8,12.3,24.1c10.1,3.2,20.8-2.3,24.1-12.3v-0.1  C513.6,183.1,504.7,133.5,471.9,97.2"/> <path d="M421.5,142.7c-16-17.7-39.6-24.5-61.3-19.8c-8.9,1.9-14.6,10.7-12.7,19.6c1.9,8.9,10.7,14.6,19.5,12.6l0,0  c10.6-2.3,22.2,1,30,9.7c7.8,8.7,9.9,20.5,6.6,30.8l0,0c-2.8,8.6,1.9,17.9,10.6,20.8c8.7,2.8,17.9-1.9,20.8-10.6  C441.7,184.6,437.5,160.4,421.5,142.7"/> <path d="M220.6,330.5c-2.9,5-9.3,7.3-14.3,5.2c-5-2-6.5-7.6-3.7-12.4c2.9-4.8,9-7.2,13.9-5.2C221.6,319.9,223.4,325.4,220.6,330.5   M194.2,364.3c-8,12.8-25.2,18.4-38.1,12.5c-12.7-5.8-16.5-20.6-8.5-33.1c7.9-12.4,24.5-17.9,37.3-12.6  C197.9,336.7,202.1,351.4,194.2,364.3 M224.3,273.9c-39.4-10.3-83.9,9.4-101,44.1c-17.5,35.4-0.6,74.7,39.2,87.5  c41.3,13.3,89.8-7.1,106.7-45.3C285.9,322.9,265.1,284.5,224.3,273.9"/></g></svg>