<?xml version="1.0" encoding="utf-8"?><svg version="1.1" id="Logo" xmlns="http://www.w3.org/2000/svg" xmlns:xlink="http://www.w3.org/1999/xlink" x="0px" y="0px"  viewBox="0 0 512 512" style="enable-background:new 0 0 512 512;" xml:space="preserve"><style type="text/css"> .st0{fill:none;} .st1{fill:#FFFFFF;}</style><rect class="st0" width="512" height="512"/><g id="XMLID_184_"> <path id="XMLID_182_" d="M495.6,136.3c-5.8-21.7-22.7-38.7-44.2-44.5C412.4,81.3,256,81.3,256,81.3s-156.4,0-195.3,10.5  c-21.5,5.8-38.5,22.8-44.2,44.5C6,175.5,6,257.4,6,257.4s0,81.9,10.4,121.1c5.8,21.7,22.7,38.7,44.2,44.5  c39,10.5,195.3,10.5,195.3,10.5s156.4,0,195.3-10.5c21.5-5.8,38.5-22.8,44.2-44.5C506,339.3,506,257.4,506,257.4  S506,175.5,495.6,136.3z"/> <polygon id="XMLID_1355_" class="st1" points="204.9,331.8 335.5,257.4 204.9,183.1  "/></g></svg>